# xmcd
# 
# Track frame offsets:
#     150
#     33155
#     56635
#     98482
#     130885
#     159855
# 
# Disc length: 2439
# 
# Revision: 0
# Processed by: cddbd v1.5.2PL0 Copyright (c) Steve Scherf et al.
# Submitted via: BonkEnc v1.0.8
# 
DISCID=3d098506
DTITLE=村上寛 - Dancing Sphinx
DYEAR=1978
DGENRE=Fusion
TTITLE0=Dancing Sphinx
TTITLE1=Maya
TTITLE2=Phoebus
TTITLE3=Neptune Lady
TTITLE4=Baby, It's Trivial
TTITLE5=Deabolo
EXTD=
EXTT0=
EXTT1=
EXTT2=
EXTT3=
EXTT4=
EXTT5=
PLAYORDER=
